<svg width="17" height="17" viewBox="0 0 17 17" fill="none" xmlns="http://www.w3.org/2000/svg">
<path d="M7.42008 16.9719H4.29449C1.38473 16.9719 0.0898438 15.677 0.0898438 12.7672V9.64166C0.0898438 6.7319 1.38473 5.43701 4.29449 5.43701H7.42008C10.3298 5.43701 11.6247 6.7319 11.6247 9.64166V12.7672C11.6247 15.677 10.3298 16.9719 7.42008 16.9719ZM4.29449 6.55329C1.98752 6.55329 1.20612 7.33469 1.20612 9.64166V12.7672C1.20612 15.0742 1.98752 15.8556 4.29449 15.8556H7.42008C9.72705 15.8556 10.5084 15.0742 10.5084 12.7672V9.64166C10.5084 7.33469 9.72705 6.55329 7.42008 6.55329H4.29449V6.55329Z" fill="#0500FF"/>
<path d="M11.8849 12.5068H11.0663C10.7612 12.5068 10.5082 12.2538 10.5082 11.9487V9.64169C10.5082 7.33471 9.72678 6.55332 7.4198 6.55332H5.11283C4.80771 6.55332 4.55469 6.3003 4.55469 5.99518V5.17658C4.55469 2.26681 5.84957 0.971924 8.75934 0.971924H11.8849C14.7947 0.971924 16.0896 2.26681 16.0896 5.17658V8.30216C16.0896 11.2119 14.7947 12.5068 11.8849 12.5068ZM11.6245 11.3905H11.8849C14.1919 11.3905 14.9733 10.6091 14.9733 8.30216V5.17658C14.9733 2.8696 14.1919 2.0882 11.8849 2.0882H8.75934C6.45236 2.0882 5.67097 2.8696 5.67097 5.17658V5.43704H7.4198C10.3296 5.43704 11.6245 6.73192 11.6245 9.64169V11.3905Z" fill="#0500FF"/>
</svg>
