<svg width="94" height="45" viewBox="0 0 94 45" fill="none" xmlns="http://www.w3.org/2000/svg">
<path fill-rule="evenodd" clip-rule="evenodd" d="M5.75118 11.3788C7.57619 8.9687 9.96709 7.04333 12.7133 5.77221C15.4596 4.50109 18.4769 3.92322 21.4997 4.08948C24.5224 4.25574 27.4578 5.16103 30.0474 6.72563C32.637 8.29024 34.8013 10.4662 36.3498 13.0618L37.6873 12.3204L39.9164 11.0155C37.9166 7.65839 35.0763 4.8778 31.6744 2.94661C28.2725 1.01542 24.4258 0 20.5118 0C16.5978 0 12.7511 1.01542 9.34917 2.94661C5.94723 4.8778 3.10697 7.65839 1.10714 11.0155L0 12.7504L1.76845 13.7958L8.61191 17.8513C7.49255 20.6603 7.41463 23.7757 8.39216 26.6368C9.3697 29.498 11.3385 31.9172 13.9443 33.459C16.5501 35.0008 19.6219 35.5641 22.6068 35.0474C25.5918 34.5308 28.2939 32.9682 30.2271 30.6407L35.213 33.6064C33.3875 36.0186 30.9951 37.9454 28.2468 39.2168C25.4985 40.4882 22.4788 41.0651 19.4542 40.8965C16.4297 40.728 13.4931 39.8193 10.9038 38.2505C8.31442 36.6817 6.15185 34.5011 4.60689 31.9011L1.07742 33.9845C3.07725 37.3416 5.91751 40.1222 9.31945 42.0534C12.7214 43.9846 16.5681 45 20.4821 45C24.396 45 28.2427 43.9846 31.6447 42.0534C35.0466 40.1222 37.8869 37.3416 39.8867 33.9845L40.9418 32.2199L39.1734 31.1745L33.556 27.8456L28.7113 25.0579C28.1215 26.9312 26.9071 28.5467 25.2698 29.636C23.6326 30.7253 21.671 31.2227 19.7112 31.0457C17.7513 30.8687 15.9112 30.0279 14.4965 28.663C13.0819 27.298 12.1779 25.4912 11.9348 23.5427C11.6918 21.5942 12.1242 19.6214 13.1603 17.952C14.1965 16.2827 15.7739 15.0174 17.6304 14.3664C19.487 13.7154 21.5109 13.7179 23.3658 14.3734C25.2208 15.029 26.7951 16.2981 27.8271 17.97L31.3863 15.9237C30.3407 14.1933 28.8962 12.737 27.1729 11.6758C25.4496 10.6147 23.4973 9.97937 21.4784 9.82274C19.4594 9.6661 17.4322 9.99266 15.5652 10.7753C13.6983 11.5579 12.0455 12.7739 10.7444 14.3222L5.75118 11.3788Z" fill="#FF7152"/>
<path d="M53.512 28.3948C51.3274 28.3948 49.663 27.8362 48.5187 26.7192C47.931 26.1007 47.4773 25.3682 47.1859 24.5671C46.8944 23.766 46.7714 22.9136 46.8246 22.0631C46.7722 21.1935 46.8937 20.3222 47.182 19.5C47.4703 18.6777 47.9196 17.9209 48.5038 17.2735C49.6184 16.1219 51.2878 15.5436 53.512 15.5386C54.1973 15.5317 54.8816 15.5913 55.5554 15.7166C56.1457 15.826 56.7269 15.9796 57.2941 16.1762V18.9121C56.1685 18.446 54.961 18.209 53.7423 18.2151C53.2321 18.1703 52.7181 18.2293 52.2315 18.3886C51.7449 18.5479 51.2957 18.8042 50.9113 19.1419C50.2394 19.9607 49.9142 21.0087 50.0048 22.0631C49.9614 22.5681 50.0235 23.0767 50.1872 23.5565C50.3509 24.0364 50.6127 24.4771 50.9559 24.8508C51.7505 25.4982 52.7639 25.8167 53.7869 25.7405C54.3925 25.7421 54.997 25.6875 55.5925 25.5774C56.1858 25.4669 56.7659 25.2955 57.3238 25.0658V27.8165C56.7577 27.999 56.1791 28.1402 55.5925 28.2391C54.9047 28.3497 54.2087 28.4018 53.512 28.3948V28.3948Z" fill="white"/>
<path d="M64.5623 28.3948C62.5263 28.3948 60.9808 27.8783 59.9257 26.8453C58.8705 25.8122 58.338 24.2058 58.3281 22.0261C58.3281 19.7129 58.8631 18.0595 59.9257 17.0512C60.9882 16.0429 62.5263 15.5684 64.5623 15.5684C66.5982 15.5684 68.1363 16.0725 69.1989 17.0512C70.2614 18.0299 70.789 19.7129 70.789 22.0261C70.789 24.2058 70.254 25.8147 69.1989 26.8453C68.1438 27.8758 66.5908 28.3948 64.5623 28.3948ZM64.5623 25.7406C64.9933 25.7833 65.4283 25.7244 65.8323 25.5686C66.2363 25.4127 66.5979 25.1643 66.888 24.8435C67.4456 24.0142 67.7073 23.0218 67.6311 22.0261C67.7267 20.9821 67.4648 19.9367 66.888 19.0604C66.5947 18.754 66.236 18.5176 65.8385 18.3687C65.441 18.2198 65.0149 18.1623 64.592 18.2004C64.1657 18.161 63.7359 18.2179 63.3346 18.3667C62.9333 18.5156 62.5707 18.7527 62.2737 19.0604C61.6931 19.935 61.4308 20.9818 61.5307 22.0261C61.4544 23.0218 61.7161 24.0142 62.2737 24.8435C62.5613 25.1573 62.9171 25.4012 63.3138 25.5567C63.7104 25.7122 64.1375 25.7751 64.5623 25.7406V25.7406Z" fill="white"/>
<path d="M72.3789 28.2021V15.7315H78.6279C79.2222 15.6824 79.8202 15.7609 80.3816 15.9617C80.943 16.1624 81.4547 16.4809 81.8825 16.8955C82.617 17.7621 82.9918 18.8761 82.9302 20.0095C82.9533 20.799 82.73 21.5763 82.2911 22.2337C81.8621 22.8675 81.2545 23.3603 80.545 23.6498C80.7174 23.7816 80.8657 23.9421 80.9834 24.1243C81.125 24.3599 81.2444 24.6081 81.34 24.8657L82.8261 28.2317H79.5567L78.1598 25.0585C78.0693 24.8233 77.9149 24.6179 77.714 24.4654C77.488 24.3368 77.231 24.2727 76.9709 24.28H75.4997V28.2317L72.3789 28.2021ZM75.4997 21.8482H77.8106C78.3261 21.8807 78.8351 21.7193 79.2372 21.3959C79.4185 21.2158 79.5582 20.9985 79.6467 20.7591C79.7353 20.5196 79.7705 20.2638 79.7499 20.0095C79.7499 18.7639 79.1481 18.1337 77.9443 18.1337H75.4997V21.8482Z" fill="white"/>
<path d="M84.5195 28.202V15.7314H93.7407V18.1336H87.6478V20.7508H93.02V23.2049H87.6478V25.7999H93.7407V28.202H84.5195Z" fill="white"/>
</svg>
