<svg width="31" height="31" viewBox="0 0 31 31" fill="none" xmlns="http://www.w3.org/2000/svg">
<circle cx="15.9727" cy="15.4719" r="15" fill="#131313"/>
<path fill-rule="evenodd" clip-rule="evenodd" d="M9.43108 10.5292C10.2422 9.45801 11.3048 8.60229 12.5254 8.03735C13.7459 7.47241 15.087 7.21558 16.4304 7.28947C17.7739 7.36336 19.0785 7.76571 20.2294 8.46109C21.3803 9.15648 22.3423 10.1236 23.0305 11.2772L23.6249 10.9476L24.6156 10.3677C23.7268 8.87565 22.4645 7.63983 20.9525 6.78153C19.4405 5.92322 17.7309 5.47192 15.9914 5.47192C14.2518 5.47192 12.5422 5.92322 11.0302 6.78153C9.51821 7.63983 8.25588 8.87565 7.36706 10.3677L6.875 11.1388L7.66098 11.6034L10.7025 13.4058C10.205 14.6543 10.1704 16.0389 10.6048 17.3105C11.0393 18.5822 11.9143 19.6573 13.0725 20.3426C14.2306 21.0278 15.5958 21.2782 16.9225 21.0486C18.2491 20.8189 19.4501 20.1244 20.3093 19.09L22.5252 20.4081C21.7139 21.4802 20.6506 22.3365 19.4291 22.9016C18.2077 23.4667 16.8656 23.7231 15.5213 23.6482C14.1771 23.5733 12.8719 23.1694 11.7211 22.4721C10.5703 21.7749 9.60916 20.8058 8.9225 19.6502L7.35385 20.5762C8.24267 22.0682 9.505 23.304 11.017 24.1623C12.529 25.0206 14.2386 25.4719 15.9781 25.4719C17.7177 25.4719 19.4273 25.0206 20.9393 24.1623C22.4513 23.304 23.7136 22.0682 24.6024 20.5762L25.0714 19.7919L24.2854 19.3273L21.7888 17.8477L19.6356 16.6088C19.3735 17.4413 18.8337 18.1593 18.106 18.6435C17.3784 19.1276 16.5066 19.3487 15.6355 19.27C14.7645 19.1914 13.9466 18.8177 13.3179 18.211C12.6892 17.6044 12.2874 16.8013 12.1794 15.9353C12.0713 15.0693 12.2635 14.1925 12.724 13.4506C13.1845 12.7087 13.8856 12.1463 14.7107 11.857C15.5359 11.5677 16.4354 11.5688 17.2598 11.8601C18.0842 12.1515 18.7839 12.7155 19.2426 13.4586L20.8245 12.5491C20.3597 11.78 19.7177 11.1328 18.9518 10.6612C18.1859 10.1896 17.3182 9.9072 16.4209 9.83758C15.5236 9.76797 14.6227 9.91311 13.7929 10.2609C12.9631 10.6087 12.2286 11.1492 11.6503 11.8373L9.43108 10.5292Z" fill="#FF7152"/>
</svg>
