<svg width="141" height="69" viewBox="0 0 141 69" fill="none" xmlns="http://www.w3.org/2000/svg">
<g opacity="0.5">
<g clip-path="url(#clip0_412_20)">
<path fill-rule="evenodd" clip-rule="evenodd" d="M15.5646 20.0813C17.9861 16.8777 21.1585 14.3185 24.8024 12.6289C28.4462 10.9393 32.4498 10.1711 36.4606 10.3921C40.4713 10.6131 44.3662 11.8165 47.8022 13.8962C51.2382 15.9759 54.11 18.8682 56.1646 22.3184L57.9392 21.3329L60.897 19.5984C58.2435 15.136 54.4749 11.44 49.961 8.87301C45.4471 6.30602 40.3431 4.9563 35.1498 4.9563C29.9565 4.9563 24.8525 6.30602 20.3386 8.87301C15.8247 11.44 12.0561 15.136 9.40261 19.5984L7.93359 21.9045L10.2801 23.294L19.3604 28.6847C17.8751 32.4185 17.7717 36.5595 19.0688 40.3627C20.3658 44.1658 22.9782 47.3814 26.4357 49.4308C29.8933 51.4803 33.969 52.229 37.9296 51.5422C41.8902 50.8555 45.4756 48.7784 48.0406 45.6847L54.6561 49.6268C52.234 52.8331 49.0596 55.3943 45.413 57.0842C41.7664 58.7742 37.7598 59.541 33.7466 59.317C29.7334 59.093 25.837 57.8851 22.4013 55.7998C18.9656 53.7146 16.0962 50.8161 14.0463 47.3601L9.36317 50.1294C12.0167 54.5917 15.7853 58.2878 20.2992 60.8547C24.813 63.4217 29.9171 64.7714 35.1104 64.7714C40.3036 64.7714 45.4077 63.4217 49.9215 60.8547C54.4354 58.2878 58.204 54.5917 60.8575 50.1294L62.2575 47.7839L59.9111 46.3943L52.4575 41.9694L46.0294 38.2639C45.2468 40.7539 43.6355 42.9013 41.463 44.3492C39.2906 45.7971 36.6879 46.4584 34.0875 46.2231C31.487 45.9878 29.0454 44.8702 27.1684 43.0559C25.2914 41.2416 24.0919 38.8399 23.7694 36.2499C23.4469 33.6599 24.0207 31.0375 25.3955 28.8186C26.7703 26.5997 28.8632 24.9178 31.3266 24.0525C33.79 23.1871 36.4754 23.1904 38.9367 24.0618C41.3979 24.9332 43.4868 26.6202 44.8561 28.8424L49.5787 26.1224C48.1913 23.8223 46.2747 21.8866 43.9881 20.4761C41.7015 19.0656 39.1111 18.2211 36.4323 18.0129C33.7535 17.8047 31.0636 18.2388 28.5864 19.279C26.1092 20.3193 23.9163 21.9357 22.1899 23.9937L15.5646 20.0813Z" fill="white"/>
</g>
<path d="M78.9322 42.6981C76.0336 42.6981 73.8252 41.9556 72.3069 40.4708C71.5271 39.6488 70.9251 38.675 70.5384 37.6102C70.1516 36.5454 69.9884 35.4124 70.059 34.2818C69.9895 33.126 70.1507 31.9679 70.5333 30.8749C70.9158 29.7819 71.512 28.7759 72.2871 27.9154C73.766 26.3846 75.981 25.6159 78.9322 25.6094C79.8415 25.6001 80.7495 25.6793 81.6435 25.8459C82.4268 25.9913 83.198 26.1955 83.9505 26.4569V30.0934C82.4571 29.4739 80.8548 29.1589 79.2379 29.167C78.5609 29.1074 77.8789 29.1859 77.2332 29.3977C76.5875 29.6094 75.9916 29.9501 75.4815 30.3989C74.59 31.4873 74.1585 32.8803 74.2787 34.2818C74.2211 34.9531 74.3035 35.6291 74.5207 36.2669C74.7379 36.9048 75.0852 37.4906 75.5407 37.9873C76.595 38.8479 77.9396 39.2712 79.297 39.1699C80.1006 39.172 80.9026 39.0995 81.6928 38.9531C82.4799 38.8063 83.2498 38.5784 83.99 38.2731V41.9294C83.2389 42.172 82.4711 42.3597 81.6928 42.4911C80.7801 42.6382 79.8566 42.7075 78.9322 42.6981Z" fill="white"/>
<path d="M93.5921 42.6989C90.8907 42.6989 88.84 42.0124 87.44 40.6392C86.04 39.2661 85.3335 37.1308 85.3203 34.2334C85.3203 31.1586 86.0302 28.961 87.44 27.6207C88.8499 26.2804 90.8907 25.6497 93.5921 25.6497C96.2936 25.6497 98.3344 26.3198 99.7443 27.6207C101.154 28.9215 101.854 31.1586 101.854 34.2334C101.854 37.1308 101.144 39.2694 99.7443 40.6392C98.3443 42.0091 96.2837 42.6989 93.5921 42.6989ZM93.5921 39.1708C94.164 39.2276 94.7412 39.1493 95.2773 38.9422C95.8133 38.735 96.2931 38.4049 96.6781 37.9784C97.4179 36.876 97.7652 35.557 97.664 34.2334C97.7909 32.8458 97.4433 31.4561 96.6781 30.2914C96.2889 29.8841 95.8129 29.5699 95.2855 29.3719C94.758 29.174 94.1927 29.0975 93.6316 29.1482C93.0659 29.0959 92.4957 29.1714 91.9632 29.3693C91.4307 29.5672 90.9496 29.8824 90.5555 30.2914C89.7851 31.4539 89.4371 32.8453 89.5696 34.2334C89.4684 35.557 89.8157 36.876 90.5555 37.9784C90.9372 38.3955 91.4092 38.7198 91.9355 38.9265C92.4619 39.1331 93.0285 39.2167 93.5921 39.1708Z" fill="white"/>
<path d="M103.965 42.443V25.8668H112.256C113.045 25.8015 113.838 25.9058 114.583 26.1727C115.328 26.4396 116.007 26.8629 116.575 27.414C117.549 28.566 118.047 30.0467 117.965 31.5532C117.996 32.6027 117.699 33.6358 117.117 34.5097C116.548 35.3522 115.741 36.0072 114.8 36.392C115.029 36.5672 115.226 36.7806 115.382 37.0227C115.57 37.3359 115.728 37.6658 115.855 38.0082L117.827 42.4825H113.489L111.635 38.2645C111.515 37.9519 111.31 37.6789 111.044 37.4761C110.744 37.3052 110.403 37.22 110.058 37.2297H108.106V42.4825L103.965 42.443ZM108.106 33.9972H111.172C111.856 34.0405 112.531 33.826 113.065 33.3961C113.305 33.1567 113.491 32.8678 113.608 32.5496C113.726 32.2313 113.772 31.8913 113.745 31.5532C113.745 29.8975 112.947 29.0598 111.349 29.0598H108.106V33.9972Z" fill="white"/>
<path d="M120.074 42.4427V25.8665H132.309V29.0595H124.225V32.5383H131.353V35.8004H124.225V39.2497H132.309V42.4427H120.074Z" fill="white"/>
</g>
<defs>
<clipPath id="clip0_412_20">
<rect width="62.1127" height="60.1159" fill="white" transform="translate(3.98828 4.91431)"/>
</clipPath>
</defs>
</svg>
