<svg width="25" height="25" viewBox="0 0 25 25" fill="none" xmlns="http://www.w3.org/2000/svg">
<g opacity="0.7">
<path d="M2.78752 10.8789C2.40612 10.8789 2.08984 10.5626 2.08984 10.1812V7.85564C2.08984 5.15797 4.28519 2.97192 6.97356 2.97192H9.29915C9.68054 2.97192 9.99682 3.2882 9.99682 3.6696C9.99682 4.05099 9.68054 4.36727 9.29915 4.36727H6.97356C5.04798 4.36727 3.48519 5.93006 3.48519 7.85564V10.1812C3.48519 10.5626 3.16891 10.8789 2.78752 10.8789Z" fill="white"/>
<path d="M21.3929 10.8789C21.0115 10.8789 20.6952 10.5626 20.6952 10.1812V7.85564C20.6952 5.93006 19.1324 4.36727 17.2068 4.36727H14.8813C14.4999 4.36727 14.1836 4.05099 14.1836 3.6696C14.1836 3.2882 14.4999 2.97192 14.8813 2.97192H17.2068C19.8952 2.97192 22.0906 5.15797 22.0906 7.85564V10.1812C22.0906 10.5626 21.7743 10.8789 21.3929 10.8789Z" fill="white"/>
<path d="M17.2063 22.9719H15.811C15.4296 22.9719 15.1133 22.6556 15.1133 22.2742C15.1133 21.8928 15.4296 21.5765 15.811 21.5765H17.2063C19.1319 21.5765 20.6947 20.0137 20.6947 18.0881V16.6928C20.6947 16.3114 21.011 15.9951 21.3924 15.9951C21.7737 15.9951 22.09 16.3114 22.09 16.6928V18.0881C22.09 20.7858 19.8947 22.9719 17.2063 22.9719Z" fill="white"/>
<path d="M9.29915 22.9719H6.97356C4.28519 22.9719 2.08984 20.7859 2.08984 18.0882V15.7626C2.08984 15.3812 2.40612 15.0649 2.78752 15.0649C3.16891 15.0649 3.48519 15.3812 3.48519 15.7626V18.0882C3.48519 20.0138 5.04798 21.5766 6.97356 21.5766H9.29915C9.68054 21.5766 9.99682 21.8928 9.99682 22.2742C9.99682 22.6556 9.68054 22.9719 9.29915 22.9719Z" fill="white"/>
<path d="M8.83576 12.7394C7.17064 12.7394 5.8125 11.3812 5.8125 9.71613C5.8125 8.05101 7.17064 6.69287 8.83576 6.69287C10.5009 6.69287 11.859 8.05101 11.859 9.71613C11.859 11.3812 10.5009 12.7394 8.83576 12.7394ZM8.83576 8.08822C7.94273 8.08822 7.20785 8.8231 7.20785 9.71613C7.20785 10.6092 7.94273 11.344 8.83576 11.344C9.72878 11.344 10.4637 10.6092 10.4637 9.71613C10.4637 8.8231 9.72878 8.08822 8.83576 8.08822Z" fill="white"/>
<path d="M7.90552 19.251C6.75203 19.251 5.8125 18.3115 5.8125 17.158C5.8125 16.0045 6.75203 15.0649 7.90552 15.0649C9.05901 15.0649 9.99855 16.0045 9.99855 17.158C9.99855 18.3115 9.05901 19.251 7.90552 19.251ZM7.90552 16.4603C7.52413 16.4603 7.20785 16.7766 7.20785 17.158C7.20785 17.5394 7.52413 17.8556 7.90552 17.8556C8.28692 17.8556 8.6032 17.5394 8.6032 17.158C8.6032 16.7766 8.28692 16.4603 7.90552 16.4603Z" fill="white"/>
<path d="M16.2766 10.8789C15.1231 10.8789 14.1836 9.93938 14.1836 8.78589C14.1836 7.63241 15.1231 6.69287 16.2766 6.69287C17.4301 6.69287 18.3696 7.63241 18.3696 8.78589C18.3696 9.93938 17.4301 10.8789 16.2766 10.8789ZM16.2766 8.08822C15.8952 8.08822 15.5789 8.4045 15.5789 8.78589C15.5789 9.16729 15.8952 9.48357 16.2766 9.48357C16.658 9.48357 16.9743 9.16729 16.9743 8.78589C16.9743 8.4045 16.658 8.08822 16.2766 8.08822Z" fill="white"/>
<path d="M15.3436 19.2511C13.6785 19.2511 12.3203 17.893 12.3203 16.2278C12.3203 14.5627 13.6785 13.2046 15.3436 13.2046C17.0087 13.2046 18.3668 14.5627 18.3668 16.2278C18.3668 17.893 17.0087 19.2511 15.3436 19.2511ZM15.3436 14.5999C14.4505 14.5999 13.7157 15.3348 13.7157 16.2278C13.7157 17.1209 14.4505 17.8558 15.3436 17.8558C16.2366 17.8558 16.9715 17.1209 16.9715 16.2278C16.9715 15.3348 16.2366 14.5999 15.3436 14.5999Z" fill="white"/>
</g>
</svg>
