<svg width="43" height="43" viewBox="0 0 43 43" fill="none" xmlns="http://www.w3.org/2000/svg">
<circle cx="21.043" cy="21.9717" r="20.5" stroke="white"/>
<path d="M16.5035 27.1967C18.9185 27.1967 20.6735 25.9967 20.6735 23.0867V16.7867H19.0385V23.0567C19.0385 24.8717 18.1385 25.6217 16.5035 25.6217C15.1235 25.6217 13.9685 24.8717 13.9685 23.0567V16.7867H12.3335V23.0867C12.3335 25.9967 14.0885 27.1967 16.5035 27.1967ZM22.9993 30.1517H24.6193V26.1467C25.1293 26.7017 25.9543 27.1967 27.2293 27.1967C29.5993 27.1967 31.2793 25.3667 31.2793 23.1017C31.2793 20.8367 29.5993 18.9917 27.2293 18.9917C26.1043 18.9917 25.1593 19.4267 24.6193 19.9667V19.2167H22.9993V30.1517ZM27.2593 25.7567C25.8043 25.7567 24.5293 24.7817 24.5293 23.1017C24.5293 21.4067 25.8043 20.4317 27.2593 20.4317C28.7143 20.4317 29.7043 21.6317 29.7043 23.1017C29.7043 24.5717 28.7143 25.7567 27.2593 25.7567Z" fill="white"/>
</svg>
