<svg width="23" height="21" viewBox="0 0 23 21" fill="none" xmlns="http://www.w3.org/2000/svg">
<path d="M11.5235 14.1485C9.49227 14.1485 7.84375 12.5 7.84375 10.4688C7.84375 8.43759 9.49227 6.78906 11.5235 6.78906C13.5547 6.78906 15.2032 8.43759 15.2032 10.4688C15.2032 12.5 13.5547 14.1485 11.5235 14.1485ZM11.5235 8.26096C10.3067 8.26096 9.31565 9.25204 9.31565 10.4688C9.31565 11.6856 10.3067 12.6766 11.5235 12.6766C12.7403 12.6766 13.7313 11.6856 13.7313 10.4688C13.7313 9.25204 12.7403 8.26096 11.5235 8.26096Z" fill="white"/>
<path d="M14.6711 20.4679C14.465 20.4679 14.259 20.4385 14.0529 20.3894C13.4445 20.2226 12.9343 19.8399 12.6105 19.3002L12.4927 19.104C11.9138 18.1031 11.1189 18.1031 10.54 19.104L10.432 19.2904C10.1082 19.8399 9.59797 20.2324 8.98959 20.3894C8.37139 20.5562 7.73357 20.4679 7.19387 20.1441L5.5061 19.1727C5.20954 19.0027 4.94939 18.776 4.74052 18.5055C4.53166 18.2349 4.37818 17.9258 4.28887 17.5959C4.19955 17.266 4.17615 16.9217 4.22001 16.5828C4.26387 16.2438 4.37412 15.9168 4.54446 15.6205C4.82903 15.12 4.90753 14.6686 4.74071 14.3841C4.5739 14.0995 4.15195 13.9327 3.57301 13.9327C2.14036 13.9327 0.972656 12.765 0.972656 11.3323V9.60532C0.972656 8.17268 2.14036 7.00497 3.57301 7.00497C4.15195 7.00497 4.5739 6.83816 4.74071 6.55359C4.90753 6.26903 4.83884 5.81764 4.54446 5.3172C4.20102 4.71863 4.1127 4.01212 4.28933 3.34486C4.46596 2.66778 4.89771 2.10846 5.5061 1.76502L7.20369 0.793569C8.31251 0.136122 9.7746 0.518815 10.4419 1.64727L10.5596 1.84352C11.1386 2.84441 11.9334 2.84441 12.5123 1.84352L12.6203 1.65708C13.2875 0.518815 14.7496 0.136122 15.8683 0.803382L17.556 1.77483C17.8526 1.94476 18.1127 2.17147 18.3216 2.44202C18.5305 2.71257 18.6839 3.02165 18.7733 3.35156C18.8626 3.68148 18.886 4.02576 18.8421 4.36473C18.7983 4.7037 18.688 5.03069 18.5177 5.32701C18.2331 5.82746 18.1546 6.27884 18.3214 6.5634C18.4882 6.84797 18.9102 7.01479 19.4891 7.01479C20.9218 7.01479 22.0895 8.18249 22.0895 9.61514V11.3422C22.0895 12.7748 20.9218 13.9425 19.4891 13.9425C18.9102 13.9425 18.4882 14.1093 18.3214 14.3939C18.1546 14.6785 18.2233 15.1298 18.5177 15.6303C18.8611 16.2289 18.9592 16.9354 18.7728 17.6026C18.6875 17.9346 18.5357 18.2458 18.3265 18.5174C18.1174 18.789 17.8552 19.0152 17.556 19.1825L15.8584 20.1539C15.4856 20.36 15.0832 20.4679 14.6711 20.4679ZM11.5212 16.8372C12.3946 16.8372 13.209 17.3868 13.7683 18.3582L13.8763 18.5446C13.994 18.7507 14.1903 18.8979 14.4258 18.9568C14.6613 19.0156 14.8968 18.9862 15.0931 18.8685L16.7906 17.8872C17.0497 17.7378 17.2394 17.4921 17.3184 17.2037C17.3974 16.9152 17.3594 16.6072 17.2126 16.3466C16.6533 15.385 16.5846 14.3939 17.0163 13.6383C17.4481 12.8827 18.341 12.451 19.4597 12.451C20.0877 12.451 20.5881 11.9505 20.5881 11.3225V9.59551C20.5881 8.97731 20.0877 8.46706 19.4597 8.46706C18.341 8.46706 17.4481 8.0353 17.0163 7.27973C16.5846 6.52415 16.6533 5.53308 17.2126 4.57144C17.3598 4.31631 17.399 4.01212 17.3205 3.71774C17.242 3.42336 17.0556 3.18785 16.8005 3.03085L15.1029 2.0594C15.0005 1.99935 14.8872 1.96009 14.7696 1.94386C14.652 1.92764 14.5323 1.93477 14.4175 1.96485C14.3027 1.99493 14.1949 2.04736 14.1003 2.11915C14.0058 2.19094 13.9263 2.28068 13.8665 2.38322L13.7585 2.56966C13.1992 3.54111 12.3848 4.09062 11.5114 4.09062C10.6381 4.09062 9.82366 3.54111 9.26434 2.56966L9.1564 2.3734C9.03446 2.17287 8.83907 2.02784 8.61181 1.96919C8.38456 1.91055 8.14339 1.94291 7.93963 2.0594L6.24205 3.04066C5.98297 3.19011 5.79333 3.43574 5.71432 3.7242C5.63532 4.01267 5.67333 4.32065 5.8201 4.58125C6.37942 5.54289 6.44811 6.53397 6.01636 7.28954C5.5846 8.04511 4.69165 8.47687 3.57301 8.47687C2.945 8.47687 2.44455 8.97731 2.44455 9.60532V11.3323C2.44455 11.9505 2.945 12.4608 3.57301 12.4608C4.69165 12.4608 5.5846 12.8926 6.01636 13.6481C6.44811 14.4037 6.37942 15.3948 5.8201 16.3564C5.67291 16.6116 5.63366 16.9157 5.71216 17.2101C5.79066 17.5045 5.97711 17.74 6.23223 17.897L7.92982 18.8685C8.13589 18.996 8.3812 19.0255 8.60689 18.9666C8.8424 18.9077 9.03865 18.7507 9.16621 18.5446L9.27415 18.3582C9.83347 17.3966 10.6479 16.8372 11.5212 16.8372Z" fill="white"/>
</svg>
