<svg width="21" height="21" viewBox="0 0 21 21" fill="none" xmlns="http://www.w3.org/2000/svg">
<g clip-path="url(#clip0_412_22)">
<path d="M20.043 4.77043C19.2992 5.09668 18.5067 5.31293 17.6805 5.41793C18.5305 4.91043 19.1792 4.11293 19.4842 3.15168C18.6917 3.62418 17.8167 3.95793 16.8842 4.14418C16.1317 3.34293 15.0592 2.84668 13.8892 2.84668C11.6192 2.84668 9.79172 4.68918 9.79172 6.94793C9.79172 7.27293 9.81922 7.58543 9.88672 7.88293C6.47797 7.71668 3.46172 6.08293 1.43547 3.59418C1.08172 4.20793 0.874219 4.91043 0.874219 5.66668C0.874219 7.08668 1.60547 8.34543 2.69547 9.07418C2.03672 9.06168 1.39047 8.87043 0.842969 8.56918C0.842969 8.58168 0.842969 8.59793 0.842969 8.61418C0.842969 10.6067 2.26422 12.2617 4.12797 12.6429C3.79422 12.7342 3.43047 12.7779 3.05297 12.7779C2.79047 12.7779 2.52547 12.7629 2.27672 12.7079C2.80797 14.3317 4.31547 15.5254 6.10797 15.5642C4.71297 16.6554 2.94172 17.3129 1.02422 17.3129C0.687969 17.3129 0.365469 17.2979 0.0429688 17.2567C1.85922 18.4279 4.01172 19.0967 6.33297 19.0967C13.878 19.0967 18.003 12.8467 18.003 7.42918C18.003 7.24793 17.9967 7.07293 17.988 6.89918C18.8017 6.32168 19.4855 5.60043 20.043 4.77043Z" fill="white"/>
</g>
<defs>
<clipPath id="clip0_412_22">
<rect width="20" height="20" fill="white" transform="translate(0.0429688 0.97168)"/>
</clipPath>
</defs>
</svg>
