<svg width="21" height="21" viewBox="0 0 21 21" fill="none" xmlns="http://www.w3.org/2000/svg">
<g clip-path="url(#clip0_412_24)">
<path d="M10.0417 0.97168C4.52047 0.97168 0.0429688 5.56224 0.0429688 11.2251C0.0429688 15.7544 2.90797 19.5969 6.88297 20.9539C7.38297 21.0484 7.56547 20.7318 7.56547 20.4599C7.56547 20.216 7.55672 19.5714 7.55172 18.7161C4.77047 19.3352 4.18297 17.3412 4.18297 17.3412C3.72922 16.1565 3.07297 15.8412 3.07297 15.8412C2.16422 15.2055 3.14047 15.2182 3.14047 15.2182C4.14422 15.291 4.67172 16.2753 4.67172 16.2753C5.56422 17.8416 7.01297 17.3897 7.58297 17.1267C7.67297 16.4642 7.93172 16.0123 8.21797 15.7557C5.99797 15.4965 3.66297 14.617 3.66297 10.689C3.66297 9.56941 4.05297 8.6541 4.69297 7.93667C4.58922 7.67752 4.24672 6.63456 4.79047 5.22395C4.79047 5.22395 5.63047 4.94821 7.54047 6.27457C8.33797 6.04734 9.19297 5.93372 10.0442 5.92989C10.893 5.935 11.7492 6.04734 12.548 6.27585C14.4567 4.94949 15.2955 5.22522 15.2955 5.22522C15.8405 6.63712 15.498 7.6788 15.3955 7.93795C16.0367 8.65538 16.423 9.57068 16.423 10.6902C16.423 14.6285 14.0855 15.4953 11.858 15.7493C12.2167 16.0659 12.5367 16.6914 12.5367 17.6476C12.5367 19.0186 12.5242 20.1241 12.5242 20.4599C12.5242 20.7343 12.7042 21.0535 13.2117 20.9526C17.1805 19.5943 20.043 15.7531 20.043 11.2251C20.043 5.56224 15.5655 0.97168 10.0417 0.97168Z" fill="white"/>
</g>
<defs>
<clipPath id="clip0_412_24">
<rect width="20" height="20" fill="white" transform="translate(0.0429688 0.97168)"/>
</clipPath>
</defs>
</svg>
