<svg width="21" height="21" viewBox="0 0 21 21" fill="none" xmlns="http://www.w3.org/2000/svg">
<path d="M10.043 18.9719C5.62995 18.9719 2.04297 15.3849 2.04297 10.9719C2.04297 6.5589 5.62995 2.97192 10.043 2.97192C14.456 2.97192 18.043 6.5589 18.043 10.9719C18.043 15.3849 14.456 18.9719 10.043 18.9719ZM10.043 4.0882C6.24762 4.0882 3.15925 7.17658 3.15925 10.9719C3.15925 14.7673 6.24762 17.8556 10.043 17.8556C13.8383 17.8556 16.9267 14.7673 16.9267 10.9719C16.9267 7.17658 13.8383 4.0882 10.043 4.0882Z" fill="white"/>
<path d="M13.0194 11.5299H7.06595C6.76084 11.5299 6.50781 11.2768 6.50781 10.9717C6.50781 10.6666 6.76084 10.4136 7.06595 10.4136H13.0194C13.3246 10.4136 13.5776 10.6666 13.5776 10.9717C13.5776 11.2768 13.3246 11.5299 13.0194 11.5299Z" fill="white"/>
<path d="M10.0425 14.5068C9.7374 14.5068 9.48438 14.2538 9.48438 13.9486V7.99515C9.48438 7.69003 9.7374 7.43701 10.0425 7.43701C10.3476 7.43701 10.6007 7.69003 10.6007 7.99515V13.9486C10.6007 14.2538 10.3476 14.5068 10.0425 14.5068Z" fill="white"/>
</svg>
