<svg width="31" height="31" viewBox="0 0 31 31" fill="none" xmlns="http://www.w3.org/2000/svg">
<circle cx="15.1445" cy="15.9719" r="15" fill="#131313"/>
<path fill-rule="evenodd" clip-rule="evenodd" d="M8.72014 11.0292C9.53126 9.95801 10.5939 9.10229 11.8144 8.53735C13.035 7.97241 14.376 7.71558 15.7195 7.78947C17.0629 7.86336 18.3675 8.26571 19.5185 8.96109C20.6694 9.65648 21.6313 10.6236 22.3195 11.7772L22.914 11.4476L23.9047 10.8677C23.0159 9.37565 21.7535 8.13983 20.2416 7.28153C18.7296 6.42322 17.02 5.97192 15.2804 5.97192C13.5409 5.97192 11.8312 6.42322 10.3192 7.28153C8.80728 8.13983 7.54494 9.37565 6.65612 10.8677L6.16406 11.6388L6.95004 12.1034L9.99158 13.9058C9.49408 15.1543 9.45945 16.5389 9.89391 17.8105C10.3284 19.0822 11.2034 20.1573 12.3615 20.8426C13.5197 21.5278 14.8849 21.7782 16.2115 21.5486C17.5382 21.3189 18.7392 20.6244 19.5983 19.59L21.8143 20.9081C21.003 21.9802 19.9397 22.8365 18.7182 23.4016C17.4967 23.9667 16.1547 24.2231 14.8104 24.1482C13.4661 24.0733 12.161 23.6694 11.0102 22.9721C9.85936 22.2749 8.89822 21.3058 8.21157 20.1502L6.64291 21.0762C7.53173 22.5682 8.79407 23.804 10.306 24.6623C11.818 25.5206 13.5277 25.9719 15.2672 25.9719C17.0067 25.9719 18.7164 25.5206 20.2284 24.6623C21.7403 23.804 23.0027 22.5682 23.8915 21.0762L24.3604 20.2919L23.5745 19.8273L21.0778 18.3477L18.9246 17.1088C18.6625 17.9413 18.1228 18.6593 17.3951 19.1435C16.6674 19.6276 15.7956 19.8487 14.9246 19.77C14.0535 19.6914 13.2357 19.3177 12.607 18.711C11.9782 18.1044 11.5765 17.3013 11.4684 16.4353C11.3604 15.5693 11.5526 14.6925 12.0131 13.9506C12.4736 13.2087 13.1747 12.6463 13.9998 12.357C14.8249 12.0677 15.7244 12.0688 16.5489 12.3601C17.3733 12.6515 18.073 13.2155 18.5317 13.9586L20.1135 13.0491C19.6488 12.28 19.0068 11.6328 18.2409 11.1612C17.475 10.6896 16.6073 10.4072 15.71 10.3376C14.8127 10.268 13.9117 10.4131 13.082 10.7609C12.2522 11.1087 11.5176 11.6492 10.9394 12.3373L8.72014 11.0292Z" fill="#FF7152"/>
</svg>
