<svg width="21" height="21" viewBox="0 0 21 21" fill="none" xmlns="http://www.w3.org/2000/svg">
<path d="M10.9729 20.4719C5.45662 20.4719 0.9729 15.9882 0.9729 10.4719C0.9729 4.95565 5.45662 0.471924 10.9729 0.471924C16.4892 0.471924 20.9729 4.95565 20.9729 10.4719C20.9729 15.9882 16.4892 20.4719 10.9729 20.4719ZM10.9729 1.86727C6.22871 1.86727 2.36825 5.72774 2.36825 10.4719C2.36825 15.2161 6.22871 19.0766 10.9729 19.0766C15.7171 19.0766 19.5776 15.2161 19.5776 10.4719C19.5776 5.72774 15.7171 1.86727 10.9729 1.86727Z" fill="white"/>
<path d="M8.18115 19.5416H7.25092C6.86952 19.5416 6.55324 19.2254 6.55324 18.844C6.55324 18.4626 6.85092 18.1556 7.23231 18.1463C5.77185 13.1342 5.77185 7.8095 7.23231 2.79745C7.05013 2.79378 6.87673 2.71852 6.74963 2.58794C6.62254 2.45736 6.55198 2.28199 6.55324 2.09977C6.55324 1.71838 6.86952 1.4021 7.25092 1.4021H8.18115C8.40441 1.4021 8.61836 1.51373 8.74859 1.69047C8.87882 1.87652 8.91603 2.10908 8.84161 2.32303C7.09278 7.61802 7.09278 13.335 8.84161 18.63C8.91603 18.844 8.87882 19.0765 8.74859 19.2626C8.61836 19.43 8.40441 19.5416 8.18115 19.5416Z" fill="white"/>
<path d="M13.7618 19.5417C13.6507 19.5426 13.541 19.5168 13.4419 19.4665C13.3429 19.4162 13.2573 19.3428 13.1926 19.2525C13.1279 19.1623 13.0858 19.0577 13.0699 18.9478C13.054 18.8378 13.0648 18.7256 13.1013 18.6207C14.8501 13.3257 14.8501 7.60874 13.1013 2.31374C13.072 2.22701 13.06 2.13535 13.0661 2.044C13.0722 1.95265 13.0963 1.8634 13.1369 1.78133C13.1775 1.69927 13.2338 1.62601 13.3028 1.56573C13.3717 1.50546 13.4518 1.45934 13.5385 1.43002C13.6252 1.40071 13.7169 1.38876 13.8083 1.39486C13.8996 1.40097 13.9889 1.425 14.0709 1.4656C14.153 1.5062 14.2262 1.56257 14.2865 1.63148C14.3468 1.70039 14.3929 1.7805 14.4222 1.86723C16.2734 7.44478 16.2734 13.4711 14.4222 19.0486C14.3292 19.3556 14.0501 19.5417 13.7618 19.5417Z" fill="white"/>
<path d="M10.9724 15.3091C8.37701 15.3091 5.79096 14.9463 3.29794 14.2114C3.28863 14.5835 2.98166 14.8905 2.60026 14.8905C2.21887 14.8905 1.90259 14.5742 1.90259 14.1928V13.2626C1.90259 13.0393 2.01422 12.8254 2.19096 12.6952C2.37701 12.5649 2.60956 12.5277 2.82352 12.6021C8.11851 14.351 13.8355 14.351 19.1305 12.6021C19.2357 12.5661 19.348 12.5557 19.4581 12.5719C19.5681 12.5881 19.6727 12.6304 19.7631 12.6952C19.9491 12.8254 20.0514 13.0393 20.0514 13.2626V14.1928C20.0514 14.5742 19.7351 14.8905 19.3538 14.8905C18.9724 14.8905 18.6654 14.5928 18.6561 14.2114C16.1538 14.9463 13.5677 15.3091 10.9724 15.3091Z" fill="white"/>
<path d="M19.344 8.37881C19.2696 8.37881 19.1951 8.36951 19.1207 8.3416C13.8257 6.59277 8.10874 6.59277 2.81374 8.3416C2.44165 8.46253 2.05095 8.26718 1.93002 7.90439C1.81839 7.5323 2.01374 7.1416 2.37653 7.02067C7.95408 5.16954 13.9804 5.16954 19.5579 7.02067C19.9207 7.1416 20.1254 7.5416 19.9951 7.90439C19.9515 8.04262 19.8647 8.16324 19.7475 8.2486C19.6303 8.33396 19.4889 8.37959 19.344 8.37881Z" fill="white"/>
</svg>
