<svg width="15" height="15" viewBox="0 0 15 15" fill="none" xmlns="http://www.w3.org/2000/svg">
<path d="M7.10938 14.4719C3.24798 14.4719 0.109375 11.3333 0.109375 7.47192C0.109375 3.61053 3.24798 0.471924 7.10938 0.471924C10.9708 0.471924 14.1094 3.61053 14.1094 7.47192C14.1094 11.3333 10.9708 14.4719 7.10938 14.4719ZM7.10938 1.44867C3.78844 1.44867 1.08612 4.15099 1.08612 7.47192C1.08612 10.7929 3.78844 13.4952 7.10938 13.4952C10.4303 13.4952 13.1326 10.7929 13.1326 7.47192C13.1326 4.15099 10.4303 1.44867 7.10938 1.44867Z" fill="white"/>
<path d="M7.10947 8.61122C6.84249 8.61122 6.62109 8.38982 6.62109 8.12285V4.86703C6.62109 4.60006 6.84249 4.37866 7.10947 4.37866C7.37644 4.37866 7.59784 4.60006 7.59784 4.86703V8.12285C7.59784 8.38982 7.37644 8.61122 7.10947 8.61122Z" fill="white"/>
<path d="M7.1121 10.7275C7.02745 10.7275 6.9428 10.708 6.86466 10.6755C6.78652 10.6429 6.71489 10.5973 6.64977 10.5387C6.59117 10.4736 6.54559 10.4085 6.51303 10.3238C6.47958 10.2456 6.46188 10.1615 6.46094 10.0764C6.46094 9.99173 6.48047 9.90708 6.51303 9.82894C6.54559 9.7508 6.59117 9.67917 6.64977 9.61406C6.71489 9.55545 6.78652 9.50987 6.86466 9.47731C7.02319 9.41218 7.20101 9.41218 7.35954 9.47731C7.43768 9.50987 7.50931 9.55545 7.57443 9.61406C7.63303 9.67917 7.67861 9.7508 7.71117 9.82894C7.74373 9.90708 7.76326 9.99173 7.76326 10.0764C7.76326 10.161 7.74373 10.2457 7.71117 10.3238C7.67861 10.4085 7.63303 10.4736 7.57443 10.5387C7.50931 10.5973 7.43768 10.6429 7.35954 10.6755C7.2814 10.708 7.19675 10.7275 7.1121 10.7275V10.7275Z" fill="white"/>
</svg>
