<svg width="13" height="13" viewBox="0 0 13 13" fill="none" xmlns="http://www.w3.org/2000/svg">
<path d="M5.79115 12.4136C2.63771 12.4136 0.0703125 9.8462 0.0703125 6.69276C0.0703125 3.53933 2.63771 0.971924 5.79115 0.971924C8.94459 0.971924 11.512 3.53933 11.512 6.69276C11.512 9.8462 8.94459 12.4136 5.79115 12.4136ZM5.79115 1.80912C3.09538 1.80912 0.907509 4.00257 0.907509 6.69276C0.907509 9.38295 3.09538 11.5764 5.79115 11.5764C8.48692 11.5764 10.6748 9.38295 10.6748 6.69276C10.6748 4.00257 8.48692 1.80912 5.79115 1.80912Z" fill="white"/>
<path d="M11.6508 12.9718C11.5447 12.9718 11.4387 12.9328 11.355 12.849L10.2387 11.7328C10.1608 11.654 10.1172 11.5477 10.1172 11.437C10.1172 11.3262 10.1608 11.2199 10.2387 11.1412C10.4006 10.9793 10.6685 10.9793 10.8303 11.1412L11.9466 12.2574C12.1084 12.4193 12.1084 12.6872 11.9466 12.849C11.8629 12.9328 11.7568 12.9718 11.6508 12.9718Z" fill="white"/>
</svg>
