<svg width="21" height="21" viewBox="0 0 21 21" fill="none" xmlns="http://www.w3.org/2000/svg">
<g clip-path="url(#clip0_412_23)">
<path d="M20.038 20.9716V20.9707H20.043V13.6357C20.043 10.0474 19.2705 7.2832 15.0755 7.2832C13.0589 7.2832 11.7055 8.38987 11.153 9.43904H11.0947V7.6182H7.11719V20.9707H11.2589V14.359C11.2589 12.6182 11.5889 10.9349 13.7447 10.9349C15.8689 10.9349 15.9005 12.9215 15.9005 14.4707V20.9716H20.038Z" fill="white"/>
<path d="M0.375 7.61914H4.52167V20.9716H0.375V7.61914Z" fill="white"/>
<path d="M2.44464 0.97168C1.1188 0.97168 0.0429688 2.04751 0.0429688 3.37335C0.0429688 4.69918 1.1188 5.79751 2.44464 5.79751C3.77047 5.79751 4.8463 4.69918 4.8463 3.37335C4.84547 2.04751 3.76964 0.97168 2.44464 0.97168V0.97168Z" fill="white"/>
</g>
<defs>
<clipPath id="clip0_412_23">
<rect width="20" height="20" fill="white" transform="translate(0.0429688 0.97168)"/>
</clipPath>
</defs>
</svg>
